<svg fill="none" height="500" viewBox="0 0 500 500" width="500" xmlns="http://www.w3.org/2000/svg"><g clip-rule="evenodd" fill-rule="evenodd"><path d="m237.685 263.578c30.4 16.4 65.194 19.349 103.554 11.344l10.814 27.978c-48 3.662-91.83-.086-128.587-16.39l14.219-22.936z" fill="#ffb83a"/><path d="m222.957 280.636s-29.58-3.177-46.156 7.272c-31.288 19.723-46.608 162.224-46.608 162.224 44.661 26.63 164.62 46.835 209.607 27.931 14.981 13.713 52.148 15.9 68.149 5.05 0 0 9.442-124.923-.75-152.549s-46.6-28.988-46.6-28.988l-137.643-20.94z" fill="#ffc764"/><path d="m169.888 464.736c10.754-20.378 35.219-23.678 30.809-25.73-10.021-4.661-26.471 11.186-24.724 1.254 2.435-13.833 14.82-22.6 11.215-26.739-5.044-5.791-7.877-5.582-6.336-12.292 4.2-18.278 21.724-22.906 19.1-23.582-6.857-1.768-10.533-5.773-3.638-42.393-6.381 12.017-10.2 38.986-13.976 48.631s-10.115 1.962-11.766 10.975 3.066 12.523 1.532 19.571-10.985-6.417-13.486 1.546 6.943 22.126 5.423 29.329-17.241 17.824-17.241 17.824 12.014.936 23.092 1.606z" fill="#ffb83a"/><path d="m354.88 361.43s5.074 14.057 4.921 26.439c-.153 12.6-5.247 22.894-2 27.432s14.613-10.132 20.028-5.079c5.07 4.727-20.564 3.033-24 15.774-1.322 4.909 9.39-2.716 11.161 2.926 1.9 6.049-8.92 1.358-16.378 30.824-1.635 7.032-2.846 14.156-3.626 21.333-1.755-1.135-3.432-2.388-5.017-3.751-2.321.912-6.27 2.174-8.14 2.692 1.81-5.684 7.8-15.272 6.265-24.408-1.777-10.578-18.99-17.949-16.244-20.3 9.438-8.1 20.345 7.7 21.189-1.906 1.789-20.351-20.022-29.46-14.381-33.7 9-6.764 20.271 11.691 23.08 3.452 3.662-10.734 5.462-23.842 3.15-41.726z" fill="#ffb83a"/><path d="m352.882 198.094c9.981-16.474 17.617-34.26 22.687-52.843 13.178 4.467 23.253-9.7 13.788-23.27 14.407-5.989 16.142-26.661-.209-31.68 10.688-7.856 7.808-25.348-4.805-27.247 6.884-14.745-5.591-29.93-21.571-24.54 5.025-18.269-20.579-31.369-32.18-14.888-7.162-19.433-31.184-16.5-36.6-1.143-12.4-12.864-29.984-3.506-29.505 11.051-15.187-7.886-28.487 6.129-23.296 20.578-17.091 1.149-20.091 20.534-9.986 31.064-9.271 6.486-5.726 22.227 4.574 25.234l117.1 87.684z" fill="#29263b"/><path d="m215.784 280.707c-18.64 4.694 14.488 46.432 47.8 63.92 57.054.784 120.812-33.678 104.084-42.138-25.258-12.771-139.088-25-151.888-21.782z" fill="#ffb83a"/><path d="m241.711 87.082c-21.255 34.187-33.858 93.96-17.276 128.2 9.5 19.6 37.185 29.209 37 28.934s4.46 39.969-22.99 40.331c-19.4.258 25.811 55.4 25.811 55.4l62.068-44.379s-13.213-4.212-14.548-14.763 15.481-67.889 15.481-67.889c31.115 12.184 35.438-27.343 10.27-27.337 0 0 17.4-52.7 11.335-69.418-5.392-14.861-100.68-39.487-107.151-29.079z" fill="#915839"/></g><path d="m261 259.439c15.887-.45 29.3-9.033 37.765-21.562-11.241 6.632-24.531 8.89-37.332 6.343.366 5.075.221 10.173-.433 15.219z" fill="#7b3711"/><path clip-rule="evenodd" d="m238 263.79c-6.585-1.633-22.476 11.359-23.935 17.575 8.95 25.829 27.231 45.268 49.605 61.907 37.319-2.812 72.55-17.148 106.641-37.771-1.3-9.3-22.693-30.989-29.709-30.6-21.383 22.2-46.716 43.257-76 63.172-15.514-22.273-24.88-46.844-26.602-74.283z" fill="#ffdc9c" fill-rule="evenodd"/><path clip-rule="evenodd" d="m279.494 337.256-6.755 46.521 12.508.739 5.998-48.107z" fill="#fff" fill-rule="evenodd"/><path clip-rule="evenodd" d="m248.242 325.101-12.825 48.879 8.744 2.285 10.587-45.465z" fill="#fff" fill-rule="evenodd"/><path d="m255.541 187.716c-.168.001-.332-.056-.464-.161-.454-.36-11.119-8.88-11.194-15.7-.109-10.191 16.982-34.148 17.709-35.163.117-.157.291-.262.485-.293.194-.03.391.017.551.131.159.114.267.287.301.48s-.01.392-.121.553c-.175.245-17.534 24.572-17.429 34.276.067 6.11 10.521 14.46 10.626 14.544.122.096.21.228.253.377.044.149.04.308-.011.455-.051.146-.147.273-.273.363-.127.09-.278.139-.433.139z" fill="#29263b"/><path d="m273.387 218.3c-.186 0-.365-.07-.503-.195-.137-.126-.223-.298-.24-.483-.466-4.99-3.743-9.2-8.991-11.559-4.552-2.044-8.975-2.012-10.626-.8-.235.149-.421.363-.536.617-.115.253-.154.534-.112.809.015.099.009.2-.016.297-.025.096-.069.187-.13.267-.061.079-.137.146-.224.195-.087.05-.183.081-.282.093s-.2.003-.296-.024c-.096-.028-.186-.075-.263-.138-.078-.063-.142-.141-.189-.229-.047-.089-.076-.185-.085-.285-.071-.538.008-1.084.229-1.58.22-.495.573-.92 1.019-1.228 2.314-1.7 7.525-1.425 12.124.641 5.753 2.583 9.349 7.243 9.867 12.785.018.197-.043.394-.169.546-.127.153-.309.249-.506.268-.024-.003-.047.003-.071.003z" fill="#29263b"/><path d="m326.167 138.033c-.747-.001-1.467-.282-2.018-.787s-.893-1.198-.959-1.942c-.757-8.6-4.825-13.045-12.8-13.978-.39-.046-.768-.168-1.11-.359-.343-.192-.645-.449-.889-.757s-.424-.661-.531-1.039-.139-.773-.093-1.164c.045-.39.167-.767.359-1.11.191-.343.448-.645.756-.889.309-.243.662-.424 1.04-.531s.773-.139 1.163-.093c10.815 1.265 17.063 7.972 18.068 19.395.035.391-.008.786-.126 1.16-.118.375-.308.723-.561 1.024-.252.301-.561.549-.91.731-.348.182-.729.293-1.12.327-.093.008-.181.012-.269.012z" fill="#29263b"/><path d="m242.746 112.863c-.544-.001-1.078-.15-1.544-.431-.465-.281-.846-.684-1.099-1.166-.254-.481-.372-1.023-.341-1.566s.21-1.068.517-1.517c5.016-7.338 11.64-8.829 18.65-4.194.649.443 1.097 1.124 1.248 1.895.152.771-.007 1.57-.44 2.226-.433.655-1.107 1.114-1.876 1.277-.768.162-1.57.016-2.232-.407-4.229-2.8-7.247-2.05-10.41 2.579-.275.402-.644.732-1.075.959s-.911.346-1.398.345z" fill="#29263b"/><path clip-rule="evenodd" d="m310.33 131.643c3.345.88 4.7 6.752 3.025 13.106s-5.747 10.793-9.091 9.911-4.7-6.752-3.025-13.106 5.75-10.793 9.091-9.911z" fill="#29263b" fill-rule="evenodd"/><path clip-rule="evenodd" d="m251.613 117.164c3.342.88 4.7 6.752 3.024 13.1s-5.749 10.8-9.091 9.914-4.7-6.755-3.024-13.106 5.746-10.793 9.091-9.911z" fill="#29263b" fill-rule="evenodd"/><path d="m332.157 206.344c-.062 0-.124-.008-.184-.023-.192-.049-.357-.172-.458-.342-.102-.17-.131-.374-.083-.566.582-1.997 1.626-3.829 3.047-5.347 1.421-1.519 3.18-2.682 5.134-3.395 1.308-.546 2.732-.753 4.141-.603 1.408.15 2.757.653 3.92 1.462.155.119.257.294.285.488.027.194-.022.391-.138.548-.116.158-.289.264-.482.295-.193.032-.391-.013-.551-.126-.967-.66-2.085-1.066-3.251-1.18-1.165-.115-2.341.065-3.418.524-1.726.626-3.28 1.649-4.537 2.986-1.258 1.338-2.182 2.953-2.7 4.714-.041.161-.134.305-.265.407-.132.102-.293.158-.46.158z" fill="#29263b"/><path clip-rule="evenodd" d="m113.864 350.347c-1.627 1.334-4.921 14.67-10.15 34.722-2.169 8.311-7.308 21.446-8.906 29.742-1.633 8.478-1.25 15.825-2.7 22.562-2.322 10.787-4.042 17.59-4.042 17.59 9.645 12.3 59.36 23.8 74.019 9.319 0 0 4.024-11.126 5.373-16.846.9-3.805-3.5-9.674-2.238-14.12 1.81-6.381.742-13.261 2.54-20.207 5.606-21.662 12.056-32.545 11.024-37.984-2.836-14.936-51.843-35.5-64.922-24.778z" fill="#ffc764" fill-rule="evenodd"/><path clip-rule="evenodd" d="m168.13 401.783c-14.874 14.189-56.178 4.765-64.108-.335-.775 5.462-.655 15.657 1.957 22.23 2.372 5.974 18.364 15.023 45.306 16.585 1.3 17.967-51.789-.841-56.45-1.613 3.982 14.68 43.216 20.95 69.263 9.384 1.657-7.107-12.67.428-2.3-15.5 2.238-3.438-17.081-4.269-15.607-15.048.801-5.873 18.801 1.184 21.939-15.703zm-12.98 32.251c.365 5.834-37.235.165-48.256-27.411 15.756 20.289 29.407 15.553 35.533 17.719s.724 7.685 12.723 9.692z" fill="#ffb83a" fill-rule="evenodd"/><path clip-rule="evenodd" d="m172.522 368.332c3.374 2.082 5.456 9.671 1.3 9.483-4.981-.228-9.7-6.893-17.7-7.183s-40.158-5.8-40.137-19.008c12.05-8 43.281 5.02 47.885 11.057 6.6 8.663 8.646 10.994 8.646 5.651z" fill="#f8c500" fill-rule="evenodd"/><path clip-rule="evenodd" d="m170.033 250.11c14.043-17.555 45.1-49.2 55.923-36.925 9.119 10.342-17.69 26-23.933 37.621 4.721-2.116 13.6 6.558 7.892 17.1 8.463 1.171 12.313 13.205 8.381 19.526 8.214 2.787 7.68 18.493 4.159 22.929-6.459 8.129-15.21 11.517-25.412 6.434-6.353 23.289-13.356 35.488-27.52 36.1-1.3-.195-6.661 10.211-9 14.357-17.038 1.568-40.2-7.837-39.409-15.3 0 0 30.656-78.994 48.924-101.836z" fill="#915939" fill-rule="evenodd"/><path d="m197.083 317.486c-.12-.001-.237-.03-.343-.086-.106-.055-.197-.135-.266-.233-.068-.098-.112-.211-.128-.329-.016-.119-.003-.239.037-.352 2.62-7.29 7.581-11.276 12.966-10.4.097.016.19.051.273.102.084.052.157.12.214.2.057.079.098.17.121.265.022.096.026.195.01.292s-.051.19-.102.273c-.052.084-.12.157-.2.214-.079.057-.17.098-.265.121-.096.022-.195.026-.292.01-4.62-.75-8.957 2.862-11.318 9.431-.053.145-.149.27-.275.358-.127.088-.278.135-.432.134z" fill="#29263b"/><path clip-rule="evenodd" d="m116.94 55.447c-.063-12.883 9.945-24.067 32.345-24.511s37.352 13.587 34.675 24.452c-3.492 14.175-27.829 18.156-27.434 33.109.061 2.275-14.757 2.069-14.757-.206-.341-14.891 29.217-22.091 29.664-33.181.39-9.721-7.55-14.991-22.027-14.991-10.058 0-18.512 5.181-19.253 15.212-.126 2.12-13.2 2.239-13.213.116z" fill="#e1b100" fill-rule="evenodd"/><path clip-rule="evenodd" d="m149.065 95.564c5.645 0 10.228 3.034 10.228 6.775s-4.583 6.774-10.228 6.774-10.226-3.035-10.226-6.774 4.583-6.775 10.226-6.775z" fill="#e1b100" fill-rule="evenodd"/></svg>