<?xml version="1.0" encoding="iso-8859-1"?>
<!-- Uploaded to: SVG Repo, www.svgrepo.com, Generator: SVG Repo Mixer Tools -->
<svg version="1.1" id="Layer_1" xmlns="http://www.w3.org/2000/svg" xmlns:xlink="http://www.w3.org/1999/xlink" 
	 viewBox="0 0 512 512" xml:space="preserve">
<polygon style="fill:#E7ECED;" points="282.628,269.675 282.628,306.954 282.628,344.233 256,344.233 250.675,344.233 
	250.675,290.978 186.769,290.978 186.769,344.233 154.816,344.233 154.816,290.978 90.91,290.978 90.91,344.233 53.631,344.233 
	53.631,179.142 138.84,179.142 256,179.142 373.161,179.142 458.369,179.142 458.369,344.233 421.091,344.233 421.091,269.675 "/>
<polygon style="fill:#7E8488;" points="421.091,269.675 421.091,344.233 282.628,344.233 282.628,306.954 282.628,269.675 "/>
<rect x="186.768" y="290.975" style="fill:#E7ECED;" width="63.906" height="53.255"/>
<rect x="90.914" y="290.975" style="fill:#7E8488;" width="63.906" height="53.255"/>
<g>
	<rect x="458.367" y="179.138" style="fill:#AFB6BB;" width="42.604" height="165.087"/>
	<rect x="11.027" y="179.138" style="fill:#AFB6BB;" width="42.604" height="165.087"/>
</g>
<g>
	<rect x="303.928" y="386.839" style="fill:#FFD311;" width="149.115" height="74.557"/>
	<rect x="58.959" y="386.839" style="fill:#FFD311;" width="149.115" height="74.557"/>
	<polygon style="fill:#FFD311;" points="500.973,115.237 373.161,115.237 256,115.237 138.84,115.237 11.027,115.237 256,8.726 	"/>
</g>
<g>
	<polygon style="fill:#F270A8;" points="500.973,115.237 500.973,179.142 458.369,179.142 373.161,179.142 373.161,115.237 	"/>
	<rect x="138.841" y="115.24" style="fill:#F270A8;" width="117.16" height="63.906"/>
</g>
<path style="fill:#00A4D4;" d="M282.628,344.233H421.09h37.279h42.604v159.765H256V344.233H282.628z M453.044,461.393v-74.556
	H303.93v74.556H453.044z"/>
<g>
	<path style="fill:#00B4D7;" d="M256,344.233v159.765H11.027V344.233h42.604H90.91h63.906h31.953h63.906H256z M208.071,461.393
		v-74.556H58.957v74.556H208.071z"/>
	<rect x="256.001" y="115.24" style="fill:#00B4D7;" width="117.16" height="63.906"/>
	<polygon style="fill:#00B4D7;" points="138.84,115.237 138.84,179.142 53.631,179.142 11.027,179.142 11.027,115.237 	"/>
</g>
<rect x="11.027" y="115.24" style="fill:#00A4D4;" width="127.808" height="31.953"/>
<rect x="373.161" y="115.24" style="fill:#EF589C;" width="127.808" height="31.953"/>
<rect x="256.001" y="115.24" style="fill:#00A4D4;" width="117.16" height="31.953"/>
<rect x="138.841" y="115.24" style="fill:#EF589C;" width="117.16" height="31.953"/>
<g>
	<rect x="58.959" y="386.839" style="fill:#FBBF1A;" width="149.115" height="37.279"/>
	<rect x="303.928" y="386.839" style="fill:#FBBF1A;" width="149.115" height="37.279"/>
</g>
<path d="M256,0l-88.937,38.669l6.38,14.677L256,17.451l206.5,89.783H49.501l103.188-44.865l-6.38-14.677L3.025,109.99V512h103.866
	v-16.004H19.029V352.235h228.969v143.761H128.185V512h380.789V109.99L256,0z M19.029,123.239h111.807v47.901H19.029V123.239z
	 M146.841,123.239h101.157v47.901H146.841L146.841,123.239L146.841,123.239z M264.002,123.239h101.157v47.901H264.002V123.239z
	 M381.163,123.239h111.808v47.901H381.163V123.239z M146.814,336.231H98.912V298.98h47.902V336.231z M242.673,336.231h-47.901
	V298.98h47.901V336.231z M492.971,495.996H264.002V352.235h228.969V495.996z M290.63,314.956h50.578v-16.004H290.63v-21.275h122.459
	v58.553H290.63V314.956z M492.971,336.231H466.37V205.769h-16.004V336.23h-21.274v-74.557H274.625v74.557h-15.949v-53.255h-79.909
	v53.255h-15.949v-53.255H82.908v53.255H61.633V200.444H45.629v135.787h-26.6V187.144h473.941V336.231z"/>
<rect x="229.37" y="64.635" width="53.255" height="16.004"/>
<rect x="293.28" y="64.635" width="21.301" height="16.004"/>
<rect x="197.416" y="64.635" width="21.302" height="16.004"/>
<path d="M216.073,378.834H50.954v90.562h165.119V378.834z M200.069,453.391H66.958v-58.553h133.111V453.391z"/>
<path d="M295.928,469.395h165.118v-90.562H295.928V469.395z M311.932,394.838h133.11v58.553h-133.11V394.838z"/>
<g>
	<rect x="90.914" y="416.116" style="fill:#FFFFFF;" width="85.205" height="16.004"/>
	<rect x="335.883" y="416.116" style="fill:#FFFFFF;" width="85.205" height="16.004"/>
	<rect x="362.513" y="298.955" style="fill:#FFFFFF;" width="31.953" height="16.004"/>
</g>
</svg>