<?xml version="1.0" encoding="iso-8859-1"?>
<!-- Uploaded to: SVG Repo, www.svgrepo.com, Generator: SVG Repo Mixer Tools -->
<svg height="800px" width="800px" version="1.1" id="Layer_1" xmlns="http://www.w3.org/2000/svg" xmlns:xlink="http://www.w3.org/1999/xlink" 
	 viewBox="0 0 512 512" xml:space="preserve">
<path style="fill:#92E03F;" d="M444.621,501.551H101.884c-19.056,0-34.504-15.448-34.504-34.505V44.953
	c-0.001-19.056,15.448-34.504,34.504-34.504h342.737V501.551z"/>
<path style="fill:#1EB615;" d="M101.884,501.551c-19.056,0-34.504-15.448-34.504-34.505V44.953
	c-0.001-19.056,15.448-34.504,34.504-34.504V501.551z"/>
<path d="M341.024,437.464c-0.007,0-0.015,0-0.022,0l-0.245-0.001c-5.77-0.013-10.44-4.7-10.427-10.471
	c0.013-5.763,4.688-10.427,10.449-10.427c0.007,0,0.015,0,0.022,0l0.245,0.001c5.77,0.013,10.44,4.7,10.427,10.471
	C351.459,432.8,346.783,437.464,341.024,437.464z"/>
<path d="M306.975,437.464H205.483c-5.771,0-10.449-4.678-10.449-10.449c0-5.771,4.678-10.449,10.449-10.449h101.492
	c5.771,0,10.449,4.678,10.449,10.449C317.424,432.786,312.746,437.464,306.975,437.464z"/>
<path style="fill:#FFD41D;" d="M376.698,256c0-16.612-13.255-30.062-29.757-30.52c11.342-12.003,11.202-30.879-0.542-42.627
	c-11.748-11.744-30.622-11.883-42.627-0.542c-0.459-16.501-13.908-29.756-30.519-29.756s-30.062,13.255-30.52,29.756
	c-12.003-11.341-30.879-11.202-42.627,0.542c-11.744,11.748-11.883,30.624-0.542,42.627c-16.502,0.459-29.757,13.909-29.757,30.52
	c0,16.612,13.255,30.062,29.757,30.52c-11.341,12.003-11.202,30.879,0.542,42.627c11.748,11.744,30.624,11.884,42.627,0.542
	c0.459,16.501,13.908,29.756,30.52,29.756c16.612,0,30.062-13.255,30.52-29.757c12.005,11.342,30.879,11.202,42.627-0.542
	c11.744-11.748,11.885-30.624,0.542-42.627C363.443,286.062,376.698,272.612,376.698,256z"/>
<path style="fill:#FF1A1A;" d="M327.356,256.155c0-29.881-24.227-54.102-54.103-54.102c-29.882,0-54.103,24.222-54.103,54.102
	c0,29.882,24.222,54.102,54.103,54.102C303.129,310.257,327.356,286.037,327.356,256.155z"/>
<path d="M444.621,0H101.884C77.097,0,56.931,20.165,56.931,44.953v422.094c0,24.787,20.165,44.954,44.953,44.954H444.62
	c5.771,0,10.449-4.678,10.449-10.449V10.449C455.07,4.678,450.392,0,444.621,0z M77.829,467.046V44.953
	c0-9.521,5.561-17.768,13.606-21.664v465.423C83.391,484.815,77.829,476.569,77.829,467.046z M434.172,491.102H112.333V20.898
	h321.839V491.102z"/>
<path d="M159.359,256c0,16.623,9.701,30.838,23.883,37.286c-5.464,14.588-2.272,31.497,9.477,43.25
	c7.734,7.731,18.014,11.989,28.946,11.989c4.937,0,9.762-0.876,14.286-2.552c6.439,14.202,20.663,23.92,37.302,23.92
	s30.863-9.718,37.303-23.921c4.523,1.677,9.35,2.553,14.286,2.553c0.001,0,0,0,0,0c10.931,0,21.21-4.258,28.947-11.992
	c11.748-11.752,14.939-28.661,9.475-43.248c14.181-6.448,23.881-20.662,23.881-37.286s-9.701-30.838-23.881-37.286
	c5.464-14.588,2.272-31.497-9.478-43.251c-7.733-7.731-18.013-11.989-28.944-11.989c-4.937,0-9.764,0.876-14.287,2.552
	c-6.439-14.199-20.663-23.918-37.302-23.918s-30.863,9.718-37.303,23.921c-4.523-1.676-9.349-2.552-14.286-2.552
	c-10.932,0-21.211,4.258-28.948,11.991c-11.747,11.751-14.938,28.659-9.475,43.248C169.06,225.162,159.359,239.377,159.359,256z
	 M199.855,235.924c4.118-0.115,7.784-2.638,9.362-6.444c1.578-3.806,0.772-8.183-2.057-11.177
	c-7.551-7.992-7.404-20.32,0.334-28.061c3.787-3.786,8.819-5.87,14.17-5.87c5.183,0,10.116,1.965,13.893,5.534
	c2.994,2.83,7.372,3.635,11.177,2.057c3.806-1.578,6.329-5.244,6.444-9.361c0.304-10.99,9.123-19.598,20.075-19.598
	c10.952,0,19.771,8.608,20.076,19.598c0.115,4.118,2.637,7.783,6.444,9.361c3.806,1.578,8.183,0.772,11.177-2.056
	c3.778-3.569,8.712-5.535,13.894-5.535c5.351,0,10.382,2.085,14.167,5.868c7.742,7.745,7.889,20.07,0.337,28.063
	c-2.83,2.994-3.635,7.372-2.058,11.177s5.244,6.329,9.362,6.444c10.99,0.306,19.598,9.124,19.598,20.076
	s-8.608,19.769-19.598,20.076c-4.118,0.115-7.784,2.638-9.362,6.444c-1.578,3.807-0.771,8.184,2.058,11.177
	c7.553,7.992,7.404,20.318-0.334,28.061c-3.787,3.786-8.819,5.871-14.17,5.871c-5.182,0-10.116-1.965-13.894-5.535
	c-2.994-2.827-7.372-3.634-11.177-2.057c-3.806,1.578-6.329,5.243-6.444,9.361c-0.306,10.99-9.124,19.598-20.076,19.598
	s-19.769-8.608-20.076-19.598c-0.115-4.118-2.638-7.785-6.444-9.361c-1.293-0.536-2.651-0.797-3.999-0.797
	c-2.621,0-5.2,0.986-7.178,2.855c-3.776,3.568-8.71,5.534-13.892,5.534c-5.351,0-10.384-2.086-14.169-5.868
	c-7.741-7.744-7.888-20.07-0.336-28.063c2.83-2.995,3.635-7.372,2.057-11.177c-1.578-3.806-5.244-6.329-9.362-6.444
	c-10.99-0.305-19.598-9.124-19.598-20.076S188.865,236.231,199.855,235.924z"/>
<path d="M273.253,320.706c35.593,0,64.552-28.957,64.552-64.551s-28.958-64.551-64.552-64.551s-64.552,28.957-64.552,64.551
	C208.7,291.748,237.658,320.706,273.253,320.706z M273.253,212.502c24.071,0,43.654,19.582,43.654,43.653
	s-19.583,43.653-43.654,43.653c-24.071,0-43.654-19.582-43.654-43.653C229.598,232.084,249.182,212.502,273.253,212.502z"/>
</svg>